<svg width="23" height="19" viewBox="0 0 23 19" fill="none" xmlns="http://www.w3.org/2000/svg">
<path fill-rule="evenodd" clip-rule="evenodd" d="M0.854828 1.78611C0.854828 1.47924 0.974997 1.18492 1.18889 0.96793C1.40278 0.750939 1.69289 0.629028 1.99538 0.629028H21.0046C21.3071 0.629028 21.5972 0.750939 21.811 0.96793C22.025 1.18492 22.1452 1.47924 22.1452 1.78611C22.1452 2.09298 22.025 2.3873 21.811 2.60429C21.5972 2.82128 21.3071 2.94319 21.0046 2.94319H1.99538C1.69289 2.94319 1.40278 2.82128 1.18889 2.60429C0.974997 2.3873 0.854828 2.09298 0.854828 1.78611ZM0.854828 9.5C0.854828 9.19312 0.974997 8.89881 1.18889 8.68182C1.40278 8.46482 1.69289 8.34291 1.99538 8.34291H21.0046C21.3071 8.34291 21.5972 8.46482 21.811 8.68182C22.025 8.89881 22.1452 9.19312 22.1452 9.5C22.1452 9.80687 22.025 10.1012 21.811 10.3182C21.5972 10.5352 21.3071 10.6571 21.0046 10.6571H1.99538C1.69289 10.6571 1.40278 10.5352 1.18889 10.3182C0.974997 10.1012 0.854828 9.80687 0.854828 9.5ZM1.99538 16.0568C1.69289 16.0568 1.40278 16.1787 1.18889 16.3957C0.974997 16.6127 0.854828 16.907 0.854828 17.2139C0.854828 17.5207 0.974997 17.8151 1.18889 18.032C1.40278 18.2491 1.69289 18.371 1.99538 18.371H21.0046C21.3071 18.371 21.5972 18.2491 21.811 18.032C22.025 17.8151 22.1452 17.5207 22.1452 17.2139C22.1452 16.907 22.025 16.6127 21.811 16.3957C21.5972 16.1787 21.3071 16.0568 21.0046 16.0568H1.99538Z" fill="#24292E"/>
</svg>
